<svg width="30" height="30" viewBox="0 0 30 30" fill="none" xmlns="http://www.w3.org/2000/svg">
<path d="M10.5 18.0125V17.8054L10.3536 17.6589L1.09106 8.39645L1.09 8.39539C0.714643 8.02227 0.502494 7.5156 0.5 6.98639V2.5C0.5 1.96957 0.710714 1.46086 1.08579 1.08579C1.46086 0.710714 1.96957 0.5 2.5 0.5H27.5C28.0304 0.5 28.5391 0.710714 28.9142 1.08579C29.2893 1.46086 29.5 1.96957 29.5 2.5V6.98625C29.4975 7.51552 29.2854 8.02224 28.91 8.39539L28.9089 8.39645L19.6464 17.6589L19.5 17.8054V18.0125V27.5C19.5 28.0304 19.2893 28.5391 18.9142 28.9142C18.5391 29.2893 18.0304 29.5 17.5 29.5H12.5C11.9696 29.5 11.4609 29.2893 11.0858 28.9142C10.7107 28.5391 10.5 28.0304 10.5 27.5V18.0125Z" fill="#94D2BD" stroke="#005F73"/>
</svg>
