<svg width="30" height="31" viewBox="0 0 30 31" fill="none" xmlns="http://www.w3.org/2000/svg">
<path d="M12.8294 25.6588C15.6759 25.6583 18.4404 24.7053 20.6826 22.9518L27.7324 30.0016L30 27.734L22.9502 20.6842C24.7047 18.4418 25.6582 15.6767 25.6588 12.8294C25.6588 5.7556 19.9032 0 12.8294 0C5.7556 0 0 5.7556 0 12.8294C0 19.9032 5.7556 25.6588 12.8294 25.6588ZM12.8294 3.20736C18.136 3.20736 22.4515 7.52285 22.4515 12.8294C22.4515 18.136 18.136 22.4515 12.8294 22.4515C7.52285 22.4515 3.20736 18.136 3.20736 12.8294C3.20736 7.52285 7.52285 3.20736 12.8294 3.20736Z" fill="#94D2BD"/>
</svg>
